{"title":"Ultramarines - A Warhammer 40,000 Movie (HD 1080p).m4v","uid":11222717,"size":5914624012,"categoryP":"video","categoryS":"hd___movies","magnet":"?xt=urn:btih:30ac24b15dbfd59c4034d9048d28e7f805abce86&amp;dn=Ultramarines+-+A+Warhammer+40%2C000+Movie+%28HD+1080p%29.m4v&amp;tr=udp%3A%2F%2Ftracker.openbittorrent.com%3A80&amp;tr=udp%3A%2F%2Fopen.demonii.com%3A1337&amp;tr=udp%3A%2F%2Ftracker.coppersurfer.tk%3A6969&amp;tr=udp%3A%2F%2Fexodus.desync.com%3A6969","seeders":1,"leechers":0,"uploader":"arctictpb","files":1,"time":1413405381,"description":"General\nComplete name : Ultramarines - A Warhammer 40,000 Movie (HD 1080p).m4v\nFormat : MPEG-4\nCodec ID : M4V\nFile size : 5.51 GiB\nDuration : 1h 16mn\nOverall bit rate mode : Variable\nOverall bit rate : 10.3 Mbps\nMovie name : Ultramarines: A Warhammer 40,000 Movie\nPerformer : Martyn Pick\nGenre : Animation, Science Fiction\nContentType : Short Film\nDescription : A squad of Ultramarines answer a distress call from an Imperial Shrine World. A full Company of Imperial Fists was stationed there, but there is no answer from them. The squad investigates to find out what has happened there.\nRecorded date : 2010-12-10\nEncoded date : UTC 2014-10-15 00:56:18\nTagged date : UTC 2014-10-15 01:02:41\nCover : Yes\nRating : None\nLongDescription : A squad of Ultramarines answer a distress call from an Imperial Shrine World. A full Company of Imperial Fists was stationed there, but there is no answer from them. The squad investigates to find out what has happened there.\n\nVideo\nID : 1\nFormat : AVC\nFormat/Info : Advanced Video Codec\nFormat profile : &lt;a class=&quot;__cf_email__&quot; href=&quot;/cdn-cgi/l/email-protection&quot; data-cfemail=&quot;b2fadbd5daf2fe869c83&quot;&gt;[email&amp;#160;protected]&lt;/a&gt;&lt;script cf-hash='f9e31' type=&quot;text/javascript&quot;&gt;\n/* &lt;![CDATA[ */!function(){try{var t=&quot;currentScript&quot;in document?document.currentScript:function(){for(var t=document.getElementsByTagName(&quot;script&quot;),e=t.length;e--;)if(t[e].getAttribute(&quot;cf-hash&quot;))return t[e]}();if(t&amp;&amp;t.previousSibling){var e,r,n,i,c=t.previousSibling,a=c.getAttribute(&quot;data-cfemail&quot;);if(a){for(e=&quot;&quot;,r=parseInt(a.substr(0,2),16),n=2;a.length-n;n+=2)i=parseInt(a.substr(n,2),16)^r,e+=String.fromCharCode(i);e=document.createTextNode(e),c.parentNode.replaceChild(e,c)}}}catch(u){}}();/* ]]&gt; */&lt;/script&gt;\nFormat settings, CABAC : Yes\nFormat settings, ReFrames : 4 frames\nCodec ID : avc1\nCodec ID/Info : Advanced Video Coding\nDuration : 1h 16mn\nBit rate : 9 735 Kbps\nWidth : 1 920 pixels\nHeight : 1 080 pixels\nDisplay aspect ratio : 16:9\nFrame rate mode : Variable\nFrame rate : 24.000 fps\nMinimum frame rate : 23.810 fps\nMaximum frame rate : 24.390 fps\nColor space : YUV\nChroma subsampling : 4:2:0\nBit depth : 8 bits\nScan type : Progressive\nBits/(Pixel*Frame) : 0.196\nStream size : 5.16 GiB (94%)\nWriting library : x264 core 129 r2230 1cffe9f\nEncoding settings : cabac=1 / ref=4 / deblock=1:0:0 / analyse=0x3:0x113 / me=umh / subme=7 / psy=1 / psy_rd=1.00:0.00 / mixed_ref=1 / me_range=16 / chroma_me=1 / trellis=1 / 8x8dct=1 / cqm=0 / deadzone=21,11 / fast_pskip=1 / chroma_qp_offset=-2 / threads=16 / lookahead_threads=2 / sliced_threads=0 / nr=0 / decimate=1 / interlaced=0 / bluray_compat=0 / constrained_intra=0 / bframes=3 / b_pyramid=2 / b_adapt=1 / b_bias=0 / direct=3 / weightb=1 / open_gop=0 / weightp=2 / keyint=240 / keyint_min=24 / scenecut=40 / intra_refresh=0 / rc_lookahead=50 / rc=abr / mbtree=1 / bitrate=9735 / ratetol=1.0 / qcomp=0.60 / qpmin=0 / qpmax=69 / qpstep=4 / ip_ratio=1.40 / aq=1:1.00\nLanguage : English\nEncoded date : UTC 2014-10-15 00:56:18\nTagged date : UTC 2014-10-15 01:02:39\n\nAudio #1\nID : 2\nFormat : AAC\nFormat/Info : Advanced Audio Codec\nFormat profile : LC\nCodec ID : 40\nDuration : 1h 16mn\nBit rate mode : Variable\nBit rate : 192 Kbps\nMaximum bit rate : 324 Kbps\nChannel(s) : 2 channels\nChannel positions : Front: L R\nSampling rate : 48.0 KHz\nCompression mode : Lossy\nStream size : 107 MiB (2%)\nLanguage : English\nEncoded date : UTC 2014-10-15 00:56:18\nTagged date : UTC 2014-10-15 01:02:39\n\nAudio #2\nID : 3\nFormat : AC-3\nFormat/Info : Audio Coding 3\nMode extension : CM (complete main)\nFormat settings, Endianness : Big\nCodec ID : ac-3\nDuration : 1h 16mn\nBit rate mode : Constant\nBit rate : 448 Kbps\nChannel(s) : 6 channels\nChannel positions : Front: L C R, Side: L R, LFE\nSampling rate : 48.0 KHz\nBit depth : 16 bits\nCompression mode : Lossy\nStream size : 246 MiB (4%)\nLanguage : English\nEncoded date : UTC 2014-10-15 00:56:18\nTagged date : UTC 2014-10-15 01:02:39\n\nText #1\nID : 4\nFormat : Timed Text\nMuxing mode : sbtl\nCodec ID : tx3g\nDuration : 1h 10mn\nBit rate mode : Variable\nBit rate : 39 bps\nStream size : 20.2 KiB (0%)\nLanguage : English\nEncoded date : UTC 2014-10-15 00:56:19\nTagged date : UTC 2014-10-15 01:02:20\n\nText #2\nID : 5\nFormat : Timed Text\nMuxing mode : sbtl\nCodec ID : tx3g\nDuration : 1h 10mn\nBit rate mode : Variable\nBit rate : 34 bps\nStream size : 17.2 KiB (0%)\nLanguage : English\nEncoded date : UTC 2014-10-15 00:56:20\nTagged date : UTC 2014-10-15 01:02:17","torrent":{"xt":"urn:btih:30ac24b15dbfd59c4034d9048d28e7f805abce86","amp;dn":"Ultramarines+-+A+Warhammer+40%2C000+Movie+%28HD+1080p%29.m4v","amp;tr":["udp%3A%2F%2Ftracker.openbittorrent.com%3A80","udp%3A%2F%2Fopen.demonii.com%3A1337","udp%3A%2F%2Ftracker.coppersurfer.tk%3A6969","udp%3A%2F%2Fexodus.desync.com%3A6969"],"infoHash":"30ac24b15dbfd59c4034d9048d28e7f805abce86","infoHashBuffer":{"type":"Buffer","data":[48,172,36,177,93,191,213,156,64,52,217,4,141,40,231,248,5,171,206,134]},"announce":[],"urlList":[]}}